<?xml version="1.0" encoding="utf-8"?>
<svg data-name="Layer 1" xmlns="http://www.w3.org/2000/svg" width="100" height="100" viewBox="0 0 100 100">
    <title>Product_Icon-Red_Hat-Ansible-RGB</title>
    <circle fill="#e00" cx="50" cy="50" r="49" transform="translate(-7.71 90.85) rotate(-80.29)"/>
    <path fill="#fff" d="M73.19,69.63,54.07,22.53a3.15,3.15,0,0,0-3-2.09,3.25,3.25,0,0,0-3.12,2L26.12,73.79l7.32.06,8.65-21.16L67.21,73.33a4.06,4.06,0,0,0,2.7,1.21,3.5,3.5,0,0,0,3.61-3.47A4.75,4.75,0,0,0,73.19,69.63ZM51,30.94l12.43,31.4-19-15.24Z"/>
</svg> 
