<?xml version="1.0" encoding="iso-8859-1"?>
<!-- Generator: Adobe Illustrator 19.0.0, SVG Export Plug-In . SVG Version: 6.00 Build 0)  -->
<svg version="1.1" id="Layer_1" xmlns="http://www.w3.org/2000/svg" xmlns:xlink="http://www.w3.org/1999/xlink" x="0px" y="0px"
	 viewBox="0 0 512 512" style="enable-background:new 0 0 512 512;" xml:space="preserve">
<polygon points="138.424,156 99.856,41.872 0,41.872 0,11.368 121.752,11.368 167.312,146.232 "/>
<polygon style="fill:#FFD67F;" points="64.448,130.384 487.944,130.384 407.224,356.872 134.968,356.872 "/>
<circle cx="359.704" cy="441.904" r="58.728"/>
<circle cx="182.576" cy="441.904" r="58.728"/>
<path style="fill:#FF583E;" d="M470.44,319.832H219.552c-22.856,0-41.56-18.704-41.56-41.56v-68.576
	c0-22.856,18.704-41.56,41.56-41.56H470.44c22.856,0,41.56,18.704,41.56,41.56v68.576C512,301.128,493.296,319.832,470.44,319.832z"
	/>
<g>
	<path style="fill:#FFFFFF;" d="M227.216,261.472c4.344,2.224,11.04,4.456,17.936,4.456c7.432,0,11.368-3.088,11.368-7.76
		c0-4.456-3.4-7-12-10.088c-11.888-4.144-19.64-10.72-19.64-21.128c0-12.216,10.192-21.56,27.072-21.56
		c8.08,0,14.024,1.704,18.264,3.608l-3.608,13.056c-2.872-1.376-7.968-3.392-14.976-3.392c-7.008,0-10.4,3.192-10.4,6.896
		c0,4.576,4.04,6.584,13.272,10.088c12.64,4.672,18.584,11.256,18.584,21.344c0,12-9.232,22.2-28.888,22.2
		c-8.184,0-16.248-2.136-20.288-4.36L227.216,261.472z"/>
	<path style="fill:#FFFFFF;" d="M300.992,211.344v14.864h11.576v11.904h-11.576v18.792c0,6.264,1.488,9.136,6.376,9.136
		c2.008,0,3.608-0.216,4.776-0.416l0.104,12.208c-2.12,0.848-5.944,1.384-10.504,1.384c-5.208,0-9.568-1.816-12.104-4.472
		c-2.984-3.072-4.472-8.064-4.472-15.392v-21.224h-6.896v-11.904h6.896v-11.256L300.992,211.344z"/>
	<path style="fill:#FFFFFF;" d="M372.672,251.584c0,19-13.488,27.72-27.4,27.72c-15.192,0-26.864-9.984-26.864-26.76
		c0-16.768,11.04-27.504,27.72-27.504C362.056,225.04,372.672,235.976,372.672,251.584z M335.08,252.12
		c0,8.92,3.72,15.608,10.616,15.608c6.264,0,10.304-6.264,10.304-15.608c0-7.752-2.976-15.608-10.304-15.608
		C337.944,236.512,335.08,244.472,335.08,252.12z"/>
	<path style="fill:#FFFFFF;" d="M382.64,243.304c0-7.648-0.216-12.64-0.432-17.096h13.92l0.52,9.568h0.432
		c2.656-7.544,9.016-10.736,14.008-10.736c1.488,0,2.232,0,3.4,0.216v15.184c-1.168-0.208-2.552-0.416-4.36-0.416
		c-5.944,0-9.984,3.192-11.04,8.184c-0.216,1.056-0.32,2.336-0.32,3.608v26.336H382.64V243.304z"/>
	<path style="fill:#FFFFFF;" d="M434.552,257.328c0.536,6.68,7.112,9.872,14.656,9.872c5.512,0,9.976-0.752,14.328-2.12l2.12,10.936
		c-5.312,2.12-11.784,3.192-18.792,3.192c-17.632,0-27.72-10.2-27.72-26.448c0-13.16,8.184-27.72,26.232-27.72
		c16.768,0,23.144,13.072,23.144,25.912c0,2.76-0.32,5.208-0.536,6.376H434.552z M453.56,246.28c0-3.928-1.688-10.504-9.136-10.504
		c-6.792,0-9.552,6.152-9.976,10.504H453.56z"/>
</g>
<g>
</g>
<g>
</g>
<g>
</g>
<g>
</g>
<g>
</g>
<g>
</g>
<g>
</g>
<g>
</g>
<g>
</g>
<g>
</g>
<g>
</g>
<g>
</g>
<g>
</g>
<g>
</g>
<g>
</g>
</svg>
